{
  "accessors": [
    {
      "bufferView": 2,
      "componentType": 5126,
      "count": 547,
      "max": [
        28.66866683959961,
        28.597854614257813,
        36.771385192871094
      ],
      "min": [
        -28.67552947998047,
        -28.53809928894043,
        0.0905296579003334
      ],
      "type": "VEC3"
    },
    {
      "bufferView": 2,
      "byteOffset": 6564,
      "componentType": 5126,
      "count": 547,
      "max": [
        0.9999887943267822,
        0.990523636341095,
        0.9999666810035706
      ],
      "min": [
        -0.9984438419342041,
        -0.9978721737861633,
        -0.9996320009231567
      ],
      "type": "VEC3"
    },
    {
      "bufferView": 1,
      "componentType": 5126,
      "count": 547,
      "max": [
        0.9764280319213867,
        0.9813047051429749
      ],
      "min": [
        0.012152308598160744,
        0.023003052920103073
      ],
      "type": "VEC2"
    },
    {
      "bufferView": 1,
      "byteOffset": 4376,
      "componentType": 5126,
      "count": 547,
      "max": [
        0.9764280319213867,
        0.9813047051429749
      ],
      "min": [
        0.012152308598160744,
        0.023003052920103073
      ],
      "type": "VEC2"
    },
    {
      "bufferView": 0,
      "componentType": 5125,
      "count": 2532,
      "type": "SCALAR"
    }
  ],
  "asset": {
    "extras": {
      "author": "Pedram Ashoori (https://sketchfab.com/pedramashoori)",
      "license": "CC-BY-4.0 (http://creativecommons.org/licenses/by/4.0/)",
      "source": "https://sketchfab.com/3d-models/mushroom-house-c9acbc987a314e0cb869247b27866035",
      "title": "Mushroom House"
    },
    "generator": "Sketchfab-12.68.0",
    "version": "2.0"
  },
  "bufferViews": [
    {
      "buffer": 0,
      "byteLength": 10128,
      "name": "floatBufferViews",
      "target": 34963
    },
    {
      "buffer": 0,
      "byteLength": 8752,
      "byteOffset": 10128,
      "byteStride": 8,
      "name": "floatBufferViews",
      "target": 34962
    },
    {
      "buffer": 0,
      "byteLength": 13128,
      "byteOffset": 18880,
      "byteStride": 12,
      "name": "floatBufferViews",
      "target": 34962
    }
  ],
  "buffers": [
    {
      "byteLength": 32008,
      "uri": "scene.bin"
    }
  ],
  "images": [
    {
      "uri": "textures/01_-_Default_baseColor.png"
    }
  ],
  "materials": [
    {
      "doubleSided": true,
      "emissiveFactor": [
        0.1391006098,
        0.1391006098,
        0.1391006098
      ],
      "emissiveTexture": {
        "index": 0
      },
      "name": "01_-_Default",
      "pbrMetallicRoughness": {
        "baseColorTexture": {
          "index": 0
        },
        "metallicFactor": 0.013910061,
        "roughnessFactor": 0.48608993899999997
      }
    }
  ],
  "meshes": [
    {
      "name": "mashroom hous_01 - Default_0",
      "primitives": [
        {
          "attributes": {
            "NORMAL": 1,
            "POSITION": 0,
            "TEXCOORD_0": 2,
            "TEXCOORD_1": 3
          },
          "indices": 4,
          "material": 0,
          "mode": 4
        }
      ]
    }
  ],
  "nodes": [
    {
      "children": [
        1
      ],
      "matrix": [
        1.0840415954589844,
        0.0,
        0.0,
        0.0,
        0.0,
        2.407055877859908e-16,
        -1.0840415954589844,
        0.0,
        0.0,
        1.0840415954589844,
        2.407055877859908e-16,
        0.0,
        0.0,
        0.0,
        0.0,
        1.0
      ],
      "name": "Sketchfab_model"
    },
    {
      "children": [
        2
      ],
      "matrix": [
        1.0,
        0.0,
        0.0,
        0.0,
        0.0,
        0.0,
        1.0,
        0.0,
        0.0,
        -1.0,
        0.0,
        0.0,
        0.0,
        0.0,
        0.0,
        1.0
      ],
      "name": "b2cb2d25e219452894bda15e0605f13d.fbx"
    },
    {
      "children": [
        3
      ],
      "name": "RootNode"
    },
    {
      "children": [
        4
      ],
      "matrix": [
        0.1395423710346222,
        0.0,
        0.0,
        0.0,
        0.0,
        3.098463064668482e-17,
        -0.1395423710346222,
        0.0,
        0.0,
        0.1395423710346222,
        3.098463064668482e-17,
        0.0,
        0.0,
        0.0,
        0.0,
        1.0
      ],
      "name": "mashroom hous"
    },
    {
      "mesh": 0,
      "name": "mashroom hous_01 - Default_0"
    }
  ],
  "samplers": [
    {
      "magFilter": 9729,
      "minFilter": 9987,
      "wrapS": 10497,
      "wrapT": 10497
    }
  ],
  "scene": 0,
  "scenes": [
    {
      "name": "Sketchfab_Scene",
      "nodes": [
        0
      ]
    }
  ],
  "textures": [
    {
      "sampler": 0,
      "source": 0
    }
  ]
}
